<?xml version="1.0" encoding="UTF-8" standalone="no"?>
<svg
   xmlns:dc="http://purl.org/dc/elements/1.1/"
   xmlns:cc="http://creativecommons.org/ns#"
   xmlns:rdf="http://www.w3.org/1999/02/22-rdf-syntax-ns#"
   xmlns:svg="http://www.w3.org/2000/svg"
   xmlns="http://www.w3.org/2000/svg"
   id="svg28"
   version="1.1"
   viewBox="0 0 219 92"
   height="92pt"
   width="219pt">
  <metadata
     id="metadata32">
    <rdf:RDF>
      <cc:Work
         rdf:about="">
        <dc:format>image/svg+xml</dc:format>
        <dc:type
           rdf:resource="http://purl.org/dc/dcmitype/StillImage" />
        <dc:title></dc:title>
      </cc:Work>
    </rdf:RDF>
  </metadata>
  <defs
     id="defs11">
    <clipPath
       id="clip1">
      <path
         id="path2"
         d="M 159 0.789062 L 184 0.789062 L 184 69 L 159 69 Z M 159 0.789062 " />
    </clipPath>
    <clipPath
       id="clip2">
      <path
         id="path5"
         d="M 183 9 L 218.371094 9 L 218.371094 69 L 183 69 Z M 183 9 " />
    </clipPath>
    <clipPath
       id="clip3">
      <path
         id="path8"
         d="M 0 0.789062 L 92 0.789062 L 92 92 L 0 92 Z M 0 0.789062 " />
    </clipPath>
  </defs>
  <g
     id="surface1">
    <path
       id="path13"
       d="m 130.87109,31.835938 c -4.78515,0 -8.35156,2.351562 -8.35156,8.007812 0,4.261719 2.34766,7.222656 8.09375,7.222656 4.87109,0 8.17969,-2.867187 8.17969,-7.398437 0,-5.132813 -2.96094,-7.832031 -7.92188,-7.832031 z m -9.57031,39.949218 c -1.13281,1.390625 -2.26172,2.871094 -2.26172,4.613282 0,3.480468 4.4336,4.523437 10.52735,4.523437 5.05078,0 11.92578,-0.351563 11.92578,-5.042969 0,-2.792968 -3.3086,-2.964844 -7.48828,-3.226562 z m 25.76172,-39.6875 c 1.5625,2.003906 3.21875,4.789063 3.21875,8.792969 0,9.65625 -7.57031,15.316406 -18.53516,15.316406 -2.78906,0 -5.3125,-0.347656 -6.8789,-0.785156 l -2.8711,4.613281 8.52735,0.519532 c 15.05859,0.960937 23.93359,1.398437 23.93359,12.96875 0,10.007812 -8.78906,15.664062 -23.93359,15.664062 -15.75,0 -21.75781,-4.003906 -21.75781,-10.878906 0,-3.917969 1.74218,-6 4.78906,-8.878906 -2.875,-1.210938 -3.82813,-3.386719 -3.82813,-5.738282 0,-1.914062 0.95313,-3.65625 2.52344,-5.3125 1.56641,-1.652344 3.30469,-3.304687 5.39453,-5.21875 -4.26172,-2.089844 -7.48437,-6.617187 -7.48437,-13.058594 0,-10.007812 6.61328,-16.878906 19.92968,-16.878906 3.74219,0 6.00391,0.34375 8.00782,0.871094 h 16.97265 v 7.394531 l -8.00781,0.609375"
       style="fill:#352600;fill-opacity:1;fill-rule:nonzero;stroke:none" />
    <g
       transform="translate(34.5)"
       id="g17"
       clip-rule="nonzero"
       clip-path="url(#clip1)">
      <path
         id="path15"
         d="m 170.37891,16.28125 c -4.96094,0 -7.83204,-2.871094 -7.83204,-7.835938 0,-4.957031 2.8711,-7.65625 7.83204,-7.65625 5.05078,0 7.92187,2.699219 7.92187,7.65625 0,4.964844 -2.87109,7.835938 -7.92187,7.835938 z m -11.22657,52.304688 v -6.875 l 4.4375,-0.605469 c 1.21875,-0.175781 1.39453,-0.4375 1.39453,-1.746094 V 33.773438 c 0,-0.953126 -0.26171,-1.566407 -1.13281,-1.824219 l -4.69922,-1.65625 0.95703,-7.046875 H 178.125 v 36.113281 c 0,1.398437 0.0859,1.570313 1.39453,1.746094 l 4.4375,0.605469 v 6.875 h -24.80469"
         style="fill:#352600;fill-opacity:1;fill-rule:nonzero;stroke:none" />
    </g>
    <g
       transform="translate(-26.4375,0.5625)"
       id="g21"
       clip-rule="nonzero"
       clip-path="url(#clip2)">
      <path
         id="path19"
         d="m 218.37109,65.210938 c -3.74218,1.824218 -9.22265,3.480468 -14.1875,3.480468 -10.35547,0 -14.26953,-4.175781 -14.26953,-14.015625 V 31.878906 c 0,-0.523437 0,-0.871094 -0.69922,-0.871094 h -6.09375 v -7.746093 c 7.66407,-0.871094 10.70703,-4.703125 11.66407,-14.1875 h 8.26953 v 12.359375 c 0,0.609375 0,0.871094 0.69531,0.871094 h 12.26953 v 8.703124 h -12.96484 v 20.796876 c 0,5.136718 1.21875,7.136718 5.91797,7.136718 2.4375,0 4.96093,-0.609375 7.04687,-1.390625 l 2.35156,7.660157"
         style="fill:#352600;fill-opacity:1;fill-rule:nonzero;stroke:none" />
    </g>
    <g
       id="g25"
       clip-rule="nonzero"
       clip-path="url(#clip3)">
      <path
         id="path23"
         d="M 89.421875,42.371094 49.628906,2.582031 c -2.289062,-2.292969 -6.007812,-2.292969 -8.300781,0 l -8.261719,8.261719 10.480469,10.484375 c 2.4375,-0.824219 5.230469,-0.273437 7.171875,1.667969 1.949219,1.953125 2.5,4.773437 1.65625,7.214844 l 10.101562,10.105468 c 2.445313,-0.84375 5.261719,-0.300781 7.214844,1.65625 2.730469,2.726563 2.730469,7.144532 0,9.875 -2.726562,2.730469 -7.148437,2.730469 -9.878906,0 -2.050781,-2.054687 -2.558594,-5.066406 -1.519531,-7.59375 L 48.871094,34.832031 V 59.625 c 0.664062,0.328125 1.292968,0.765625 1.847656,1.320312 2.726562,2.726563 2.726562,7.144532 0,9.878907 -2.730469,2.726562 -7.152344,2.726562 -9.875,0 -2.730469,-2.734375 -2.730469,-7.152344 0,-9.878907 0.671875,-0.675781 1.453125,-1.183593 2.285156,-1.523437 V 34.398438 C 42.296875,34.058594 41.515625,33.550781 40.84375,32.875 38.777344,30.808594 38.277344,27.777344 39.335938,25.238281 L 29.003906,14.902344 1.71875,42.1875 c -2.292969,2.292969 -2.292969,6.011719 0,8.300781 L 41.511719,90.28125 c 2.292969,2.292969 6.007812,2.292969 8.300781,0 L 89.421875,50.675781 c 2.292969,-2.292969 2.292969,-6.011719 0,-8.304687"
         style="fill:#f03a2b;fill-opacity:1;fill-rule:nonzero;stroke:none" />
    </g>
  </g>
</svg>
